# xmcd
#
# Track frame offsets:
#	150
#	13635
#	30432
#	42952
#	60195
#	76207
#	88515
#	98545
#	111922
#	121270
#	136362
#	148055
#	168192
#	181405
#	194225
#	211317
#
# Disc length: 2977 seconds
#
# Revision: 0
# Processed by: cddbd v1.5.2PL0 Copyright (c) Steve Scherf et al.
# Submitted via: dBpowerAMP V4.0
#
DISCID=cf0b9f10
DTITLE=trindade e samuel - classicos do sertao
DYEAR=1900
DGENRE=
TTITLE0=boate azul
TTITLE1=porta do mundo
TTITLE2=olho de vidro
TTITLE3=vc marcou pra mim
TTITLE4=vestido molhado
TTITLE5=baile do interior
TTITLE6=no embalo da sanfona
TTITLE7=eu quero namorar
TTITLE8=a mulher do meu vizinho
TTITLE9=crenca de peao
TTITLE10=dandinha
TTITLE11=o desempregado
TTITLE12=eu gosto dela
TTITLE13=o grande milagre
TTITLE14=tudo que eu tinha era ela
TTITLE15=eu so penso em vc
EXTD=
EXTT0=
EXTT1=
EXTT2=
EXTT3=
EXTT4=
EXTT5=
EXTT6=
EXTT7=
EXTT8=
EXTT9=
EXTT10=
EXTT11=
EXTT12=
EXTT13=
EXTT14=
EXTT15=
PLAYORDER=
